<svg xmlns="http://www.w3.org/2000/svg" viewBox="0 0 1000 300"><title>Artboard 56</title><circle cx="143.47" cy="152.73" r="128.72" style="fill:#fff"/><path d="M382.23,175.12a62.3,62.3,0,0,1-19.15-2.84c-6.1-1.94-10.75.71-10.75,4.54v35.43c0,2.68-2.32,4.19-6.37,4.19h-.88c-4.06,0-6.38-1.51-6.38-4.19V113.39c0-15.78,17.41-29.83,43.53-29.83s43.5,14,43.5,29.83v31.9C425.73,161,408.31,175.12,382.23,175.12Zm29.85-61.73c0-10.83-11-21.45-29.85-21.45s-29.9,10.62-29.9,21.45v31.9c0,10.84,11,21.45,29.9,21.45s29.85-10.61,29.85-21.45Z" style="fill:#fff"/><path d="M521.33,173.19h-.87c-4.08,0-6.41-1.51-6.41-4.16V113.39c0-10.83-11-21.45-29.85-21.45s-29.91,10.62-29.91,21.45V169c0,2.65-2.32,4.16-6.35,4.16h-.89c-4,0-6.37-1.51-6.37-4.16V42.69c0-2.67,2.34-4.19,6.37-4.19h.89c4,0,6.35,1.52,6.35,4.19V81.85c0,3.8,4.65,6.47,10.75,4.56a62.47,62.47,0,0,1,19.16-2.85c26.09,0,43.53,14,43.53,29.83V169C527.73,171.68,525.37,173.19,521.33,173.19Z" style="fill:#fff"/><path d="M705.51,94.6c-7.37-2.71-9.51-2.66-17.66-2.66C669,91.94,658,102.56,658,113.39V169c0,2.65-2.31,4.16-6.39,4.16h-.86c-4.05,0-6.37-1.51-6.37-4.16V113.39c0-15.78,17.38-29.47,43.49-29.83,10.9-.12,17.32.78,24.57,4,2.92,1.34,4.06,3.81,2,5.71C712.42,95.37,708.74,95.79,705.51,94.6Z" style="fill:#fff"/><path d="M793.62,132.93H745.76c-8.11,0-12.76,3.06-12.76,8.36v4c0,10.84,11,21.45,29.86,21.45,14.52,0,21.79-5.88,26.42-10.25,2-2.08,6.1-2.66,9-1.34s3.76,3.81,2,5.89c-5.22,6.64-17.71,14.08-37.44,14.08-26.11,0-43.51-14.08-43.51-29.83v-31.9c0-15.78,17.4-29.83,43.51-29.83s43.55,14,43.55,29.83v11.2C806.41,129.91,801.74,132.93,793.62,132.93Zm-.88-19.54c0-10.83-11-21.45-29.88-21.45S733,102.56,733,113.39v4c0,5.28,4.65,8.34,12.76,8.34H780c8.11,0,12.75-3.06,12.75-8.34Z" style="fill:#fff"/><path d="M860.75,175.12c-19.15,0-33.37-7.44-40.33-14.83-1.74-1.9-2-4.37,1.17-5.88a8,8,0,0,1,8.7,1,46.37,46.37,0,0,0,30.46,11.37c21.46,0,29.89-9.87,29.89-19,0-16.31-29.89-16.72-29.89-16.72-25.53-.94-40.33-10.06-40.33-23.73,0-11.59,13.64-23.75,40.33-23.75,11.62,0,22.91,3.21,29.27,7.42,2.62,1.71,2.62,4.39,0,5.88s-6.09,1.51-9.84-.38a39.11,39.11,0,0,0-19.43-4.75c-21.75,0-27.25,10.43-27.25,15.58,0,14.26,27,15.58,27,15.58,23.2.92,43.8,7.59,43.8,24.87C904.26,163.31,888,175.12,860.75,175.12Z" style="fill:#fff"/><path d="M985.71,173.45a65.52,65.52,0,0,1-14.87,1.67c-26.12,0-43.55-14.08-43.55-29.83v-43c0-5.31-4.61-8.35-12.76-8.35H910.2c-4.06,0-6.41-2.8-6.41-4.88s2.35-5.34,6.41-5.34h4.33c8.15,0,12.76-3,12.76-8.34V42.83c0-2.62,2.34-4.17,6.4-4.17h.9c4,0,6.35,1.55,6.35,4.17V75.4c0,5.31,4.64,8.34,12.8,8.34h18.5c4,0,6.37,3.24,6.37,5.34S976.29,94,972.24,94h-18.5c-8.16,0-12.8,3-12.8,8.35v43c0,10.84,11,21.45,29.9,21.45a46.88,46.88,0,0,0,10-1.14C990.62,163.58,991.46,172.08,985.71,173.45Z" style="fill:#fff"/><path d="M585.7,84.13c-27.48,0-43.54,12.83-43.54,25.91v38.51c0,13,16.06,25.87,43.54,25.87s43.49-12.82,43.49-25.87V110C629.19,97,613.14,84.13,585.7,84.13Zm28,60.87c0,10.63-10.36,21.12-28.06,21.12S557.6,155.63,557.6,145V113.58c0-10.66,10.36-21.11,28.09-21.11s28.06,10.45,28.06,21.11Z" style="fill:#fff"/><path d="M469.77,260.87c-3.8,3-8.76,4.42-14.49,4.42-7.75,0-14.65-4-19-8.06l6.19-9.14c3.88,4,9.84,6.74,13.95,6.74s7.13-1.94,7.13-5.5-3.95-5-6.28-5.89-6.35-2.25-8.13-3a20.91,20.91,0,0,1-6.36-3.88c-2.32-2.17-4.18-5.27-4.18-10.31a15.07,15.07,0,0,1,5.58-11.7c3-2.55,7.9-4.26,14.1-4.26s13.33,2.95,17,6.59l-5.34,8.76c-3.1-3.1-7.91-5.43-11.94-5.43s-7,1.55-7,4.8,3,4.5,5.42,5.43,6.28,2.33,8,3a21.37,21.37,0,0,1,7.44,4.34,14,14,0,0,1,4.19,10.31A16.2,16.2,0,0,1,469.77,260.87Z" style="fill:#fff"/><path d="M518.15,264.36H506.29l-.23-4a14.25,14.25,0,0,1-10.93,4.88c-6.74,0-13.87-3.64-13.87-12.16s7.83-11.39,14.88-11.7l9.61-.39v-.85c0-4-2.87-6.13-7.83-6.13a24.42,24.42,0,0,0-11.7,3.41l-3.25-8a37.54,37.54,0,0,1,16.35-3.88c7.13,0,11.23,1.63,14.25,4.42s4.58,6.51,4.58,12.94Zm-12.32-16.81-6.12.38c-3.8.16-6,1.79-6,4.65s2.4,4.73,5.81,4.73a7.63,7.63,0,0,0,6.36-3.49Z" style="fill:#fff"/><path d="M540.49,264.36h-12.4V210.89h12.4Z" style="fill:#fff"/><path d="M569.87,265.21c-12.09,0-21.24-7.51-21.24-19.84s9.15-19.91,21.24-19.91S591,233.06,591,245.37,582,265.21,569.87,265.21Zm0-30c-5.5,0-8.68,4.25-8.68,9.91s3.18,9.92,8.68,9.92,8.68-4.26,8.68-9.92S575.29,235.23,569.87,235.23Z" style="fill:#fff"/><path d="M636.54,264.36h-12.4V244.44c0-5-.78-8.83-5.89-8.83-5.35,0-6.82,4.34-6.82,9.84v18.91H599v-38.2h12.4l-.08,5.5h.16a12.39,12.39,0,0,1,11.08-6.2c11.08,0,13.95,7.13,13.95,16.35Z" style="fill:#fff"/><path d="M694.3,260.87c-3.8,3-8.76,4.42-14.49,4.42-7.75,0-14.65-4-19-8.06l6.2-9.14c3.88,4,9.84,6.74,14,6.74s7.13-1.94,7.13-5.5-4-5-6.28-5.89-6.35-2.25-8.13-3a20.91,20.91,0,0,1-6.36-3.88c-2.32-2.17-4.18-5.27-4.18-10.31a15.07,15.07,0,0,1,5.58-11.7c3-2.55,7.9-4.26,14.1-4.26s13.33,2.95,17,6.59l-5.35,8.76c-3.09-3.1-7.9-5.43-11.93-5.43s-7,1.55-7,4.8,3,4.5,5.42,5.43,6.28,2.33,8,3a21.37,21.37,0,0,1,7.44,4.34,14,14,0,0,1,4.19,10.31A16.2,16.2,0,0,1,694.3,260.87Z" style="fill:#fff"/><path d="M727.41,265.21c-12.09,0-21.23-7.51-21.23-19.84s9.14-19.91,21.23-19.91,21.15,7.6,21.15,19.91S739.5,265.21,727.41,265.21Zm0-30c-5.5,0-8.68,4.25-8.68,9.91s3.18,9.92,8.68,9.92,8.68-4.26,8.68-9.92S732.83,235.23,727.41,235.23Z" style="fill:#fff"/><path d="M804.46,235.61H796v13.72c0,3.25.47,4,1.09,4.72s1.32.93,2.94.93a11.65,11.65,0,0,0,3.72-.69l.62,9.68a33.21,33.21,0,0,1-8.83,1.24c-4.42,0-7.36-1.31-9.3-3.56s-2.71-5.43-2.71-11.24v-14.8H770.67v28.75H758.2V235.61h-4.88v-9.38h4.88v-2.09c0-4.26.85-8,3.1-10.3s5.89-4,10.69-4a34.56,34.56,0,0,1,8.45,1l-.62,8.6a19.53,19.53,0,0,0-4.58-.69c-3.64,0-4.57,2.09-4.57,4.95v2.48h12.87V215.85H796v10.38h8.45Z" style="fill:#fff"/><path d="M870.9,226.16l-12.56,38.2H846.65L839.21,241l-7.52,23.4H820l-12.55-38.2H820l6.74,24.41,7.36-24.41h10.15l7.37,24.41,6.73-24.41Z" style="fill:#fff"/><path d="M911.38,264.36H899.53l-.24-4a14.21,14.21,0,0,1-10.92,4.88c-6.74,0-13.87-3.64-13.87-12.16s7.83-11.39,14.87-11.7L899,241v-.85c0-4-2.86-6.13-7.82-6.13a24.38,24.38,0,0,0-11.7,3.41l-3.25-8a37.49,37.49,0,0,1,16.34-3.88c7.13,0,11.24,1.63,14.26,4.42s4.57,6.51,4.57,12.94Zm-12.32-16.81-6.12.38c-3.8.16-6,1.79-6,4.65s2.4,4.73,5.81,4.73a7.59,7.59,0,0,0,6.35-3.49Z" style="fill:#fff"/><path d="M946.12,237.55h-.54a9.9,9.9,0,0,0-4.49-.93,7.29,7.29,0,0,0-5.74,2.79c-.93,1.24-1.93,3.72-1.93,8v17H921v-38.2h12.4l-.08,5.42h.15c2.17-4.18,5.35-6.12,9.46-6.12a8.89,8.89,0,0,1,3.87.7Z" style="fill:#fff"/><path d="M989.14,248.24H962c.54,5.5,4.72,8,9.76,8a21.53,21.53,0,0,0,11.47-3.64l4.88,6.43c-1.24.93-6.28,6.2-18.13,6.2s-20.38-7.28-20.38-19.91,9.3-19.84,20.61-19.84S989.3,233,989.3,244.13C989.3,246,989.14,248.24,989.14,248.24Zm-11.39-7.05a7.69,7.69,0,0,0-7.82-7.67,7.79,7.79,0,0,0-7.91,7.67Z" style="fill:#fff"/><path d="M61.72,235.31a116.58,116.58,0,1,1,164.86,0A116.58,116.58,0,0,1,61.72,235.31Z" style="fill:#511a92"/><path d="M91.88,207.32c-6,6.6-12.31,2.06-13.19.15-1-2.27-4.13-2.37-7.09-.45s-4,6-.39,9.45c1.84,1.77,7.48,4.84,14.38,4.69,5.75-.13,10.47-5.4,10.47-5.4s4.71-5.57,2-8.2C95.09,204.6,91.88,207.32,91.88,207.32ZM186,184.43s-22.11,8.14-53-22.11-22.71-47-22.71-47-8-4.06-13,.88c-4.31,4.24-42.1,43.19-1.69,82.93,17,16.75,48.82,33.85,86.89,2C182.44,201.19,194.75,192.19,186,184.43Zm24.08-90c-2.79-6.58-7.44-10.77-15.24-12.14s-34.16-4.49-51.4,5.52a103,103,0,0,0-27.56,23.56s-12.58,19.6,23.75,46.38c28.67,21.14,46.69,15.93,51.17,14,6.59-2.87,14.37-13.11,18.61-22.94S216.82,112.75,210.07,94.46Z" style="fill:#fff"/></svg>